<svg id="mouth_open" data-name="mouth open" xmlns="http://www.w3.org/2000/svg" xmlns:xlink="http://www.w3.org/1999/xlink" viewBox="0 0 414 736"><defs><style>.cls-1,.cls-12,.cls-5{fill:none;}.cls-2{clip-path:url(#clip-path);}.cls-3{fill:#f7f7f7;}.cls-4,.cls-8{fill:#ffe8b6;}.cls-10,.cls-12,.cls-13,.cls-14,.cls-15,.cls-16,.cls-4,.cls-5,.cls-7,.cls-8,.cls-9{stroke:#231f20;stroke-miterlimit:10;}.cls-10,.cls-12,.cls-13,.cls-15,.cls-4,.cls-9{stroke-width:2px;}.cls-16,.cls-5,.cls-7,.cls-8{stroke-width:3px;}.cls-15,.cls-6{fill:#9766ab;}.cls-7{fill:#eeeb69;}.cls-9{fill:#fff;}.cls-10{fill:#9b3821;}.cls-11{fill:#231f20;}.cls-13{fill:#de436c;}.cls-14{fill:#94d6ea;}.cls-16{fill:#64595d;}</style><clipPath id="clip-path"><rect class="cls-1" y="129.51" width="414" height="606.49"/></clipPath></defs><title>teddyup</title><g class="cls-2"><path class="cls-3" d="M79.57,493.48c18.88-96,118.92-149,118.92-149,91.34,25.59,106.32,53.88,106.32,53.88,34.94,39,50.42,88,49.35,95.14-12.4,1.25-28.71,10.5-35.08,18.72s-.22,13-.22,13l10.88,134.77c11.15,24.92,8.35,73.65,5.5,76.06s-232.56,0-232.56,0c-13.07-45.14,14.67-103.71,14.67-103.71l-1.58-119C100.53,500.93,91.07,491.83,79.57,493.48Z"/><path class="cls-4" d="M111.3,290.56c-10,6.73-9.83,22.18,2.69,30.21"/><path class="cls-4" d="M322.2,290.56c10,6.73,9.83,22.18-2.69,30.21"/><path class="cls-5" d="M143,382.27C77.08,447.5,79.58,500.65,79.58,500.65"/><path class="cls-5" d="M353.09,500.65s2.5-53.15-63.44-118.38"/><path class="cls-5" d="M79.57,493.48c21.11,1.78,37.76,21.59,37.76,21.59"/><path class="cls-5" d="M354.16,493.48c-21.11,1.78-37.76,21.59-37.76,21.59"/><polyline class="cls-6" points="286.81 678.36 328.25 626 329.74 659.94"/><polyline class="cls-6" points="149.92 678.36 108.48 626 106.99 659.94"/><path class="cls-7" d="M304.82,398.34c-20.7,49.83-8.92,74.09-4.42,80.79,1.58,2.36,2.71,5,4.21,7.39,170.35,272.62-330.51,294-177.06,2,1.77-3.38,3.22-6.92,5.25-10.15,4.77-7.61,15.13-31.89-4.89-80.07L143,382.27h0l13.91,13.16c41.59,62.72,83.85,71.45,127.36-20l20.52,22.95"/><path class="cls-5" d="M137.07,509.08C154.57,530.32,178.8,523,178.8,523"/><path class="cls-5" d="M289.81,509.08C272.32,530.32,248.08,523,248.08,523"/><path class="cls-5" d="M207,650.94c7.74-8.24,16.61-7,20.41,0"/><path class="cls-5" d="M108.9,640.11c0,17.34-2.3,19.62-2.3,19.62,15.91,8.52,31.34,15,31.34,15"/><path class="cls-5" d="M106.6,659.73C99.74,680.84,95.7,709,102.67,736"/><path class="cls-5" d="M328.65,640.11c0,17.34,2.3,19.62,2.3,19.62a328.73,328.73,0,0,1-32.85,15"/><path class="cls-5" d="M331.3,659.73c6.87,21.11,10.9,49.3,3.93,76.27"/><path class="cls-5" d="M113.25,680.41C119,711,99.67,715.32,99.67,715.32"/><path class="cls-5" d="M325.08,680.41c-5.7,30.63,13.58,34.91,13.58,34.91"/><path class="cls-5" d="M231.74,707.64s1.07,22.93-13.88,24.24"/><path class="cls-5" d="M272.63,398.34c-30.51,57.46-75.46,63.08-115.69-2.9"/><g id="eat_face" data-name="eat face"><ellipse class="cls-8" cx="216.71" cy="297.88" rx="104.66" ry="118.83"/><ellipse class="cls-9" cx="173.28" cy="257.54" rx="19.2" ry="23.54"/><ellipse class="cls-9" cx="261.32" cy="257.54" rx="19.2" ry="23.54"/><path class="cls-10" d="M231.76,310.27c19.74,0,60.82,13.81,36.85,32.21-2.58,2-9.31,3.72-14.23,5-17.49,4.72-72.33,5.74-87.08-7.86s-.37-28.89,35.07-29.39"/><circle class="cls-11" cx="165.87" cy="252.58" r="2.48"/><circle class="cls-11" cx="267.95" cy="250.11" r="2.48"/><path class="cls-12" d="M188.17,284.13c-8.42,9.47-22.3,5.68-22.3,5.68"/><path class="cls-12" d="M248.13,285.19c7.78,10.1,22.3,5.38,22.3,5.38"/><path class="cls-13" d="M191.43,349.08c27.29-21.4,54.59.21,54.59.21"/><path class="cls-5" d="M188.17,222.59c-16.05-1.78-34.09,6.69-34.09,6.69"/><path class="cls-5" d="M245.78,222.35c14.21-2.88,29.82,3.47,29.82,3.47"/><path class="cls-12" d="M189.94,372.44c28.79,13.54,55.84,0,55.84,0"/><path class="cls-4" d="M196.81,269.93c-16.1,57.6,52.65,68.75,40.88,0"/><path class="cls-14" d="M132.88,243.15c-18.55,38.64,2.9,26.77,4.87-10"/><path class="cls-14" d="M286.11,221.6c15.33,31,9.93,49.33,20,47.4,8.27-1.58-12.43-37.08-12.43-37.08"/><path class="cls-15" d="M133,225.82c-2.69-5.2,18.46-27.91,24.29-29.91,14-4.78,103.38-12,118.6.44,0,0,22.07,15.77,21.17,24.72C263.08,207,173.28,209.68,133,225.82Z"/></g><g id="bar_forearm" data-name="bar + forearm"><rect class="cls-16" x="-19.33" y="390.23" width="443.4" height="21.55"/><g id="left_forearm" data-name="left forearm"><path class="cls-8" d="M53.66,412.94c6.88-9.07,0-23.7,0-23.7,3.06-10.32,17.2-4.73,17.2-4.73,7.31-6,15.48-6,19.78-1.51,9-3.22,12.47-3.22,16.34,1.08,13.76,27,4,43.66,4,43.66-3.46,15.93,13.13,68.52,19.73,88.41a29.69,29.69,0,0,1-4.77,28c-15.45,19.15-51.25,23.26-69.09.92-6.84-8.57-9.45-19.7-8-30.56,3.6-27.78,21.74-65.11,11.81-77.29C49,422.91,43,416.34,46.2,412.94"/><path class="cls-4" d="M70.87,384.51a22,22,0,0,1,3.07,11.17"/><path class="cls-4" d="M90.34,383.42a22,22,0,0,1,3.07,11.17"/></g><g id="right_forearm" data-name="right forearm"><path class="cls-8" d="M369.08,412.94c-6.88-9.07,0-23.7,0-23.7-3.06-10.32-17.2-4.73-17.2-4.73-7.31-6-15.48-6-19.78-1.51-9-3.22-12.47-3.22-16.34,1.08-13.76,27-4,43.66-4,43.66,3.46,15.93-13.13,68.52-19.73,88.41a29.69,29.69,0,0,0,4.77,28c15.45,19.15,51.25,23.26,69.09.92,6.84-8.57,9.45-19.7,8-30.56-3.6-27.78-21.74-65.11-11.81-77.29,11.63-14.28,17.65-20.85,14.47-24.25"/><path class="cls-4" d="M351.88,384.51a22,22,0,0,0-3.07,11.17"/><path class="cls-4" d="M332.41,383.42a22,22,0,0,0-3.07,11.17"/></g></g></g></svg>