<svg xmlns="http://www.w3.org/2000/svg" xmlns:xlink="http://www.w3.org/1999/xlink" viewBox="0 0 414 736"><defs><style>.cls-1,.cls-7,.cls-8{fill:none;}.cls-2{clip-path:url(#clip-path);}.cls-3{fill:#eeeb69;}.cls-10,.cls-11,.cls-12,.cls-13,.cls-14,.cls-3,.cls-4,.cls-5,.cls-7,.cls-8,.cls-9{stroke:#231f20;stroke-miterlimit:10;}.cls-12,.cls-13,.cls-14,.cls-3,.cls-4,.cls-8{stroke-width:3px;}.cls-4,.cls-9{fill:#ffe8b6;}.cls-12,.cls-5{fill:#fff;}.cls-11,.cls-5,.cls-7,.cls-9{stroke-width:2px;}.cls-6{fill:#231f20;}.cls-10{fill:#94d6ea;}.cls-11{fill:#9766ab;}.cls-13{fill:#fee2d4;}.cls-14{fill:#64595d;}</style><clipPath id="clip-path"><rect class="cls-1" y="349.29" width="414" height="386.71"/></clipPath></defs><title>teddydown</title><g id="down"><rect class="cls-1" width="414" height="736"/><g class="cls-2"><path class="cls-3" d="M296.42,601.22c-20.7,49.83-10.42,112-5.92,118.67,1.58,2.36,2.71,5,4.21,7.39q2.75,4.4,5.27,8.71c153.18,262.28-326.58,281.89-185.75,0q1.65-3.31,3.42-6.68c1.77-3.38,3.22-6.92,5.25-10.15,4.77-7.61,16.62-69.77-3.39-118C134.63,585.15,133.13,623,133.13,623h0L147,636.2c41.59,62.72,83.85,71.45,127.36-20l22-15"/><path class="cls-3" d="M262.74,639.1c-30.51,57.46-75.46,63.08-115.69-2.9"/><g id="eat_face" data-name="eat face"><ellipse class="cls-4" cx="206.81" cy="538.65" rx="104.66" ry="118.83"/><ellipse class="cls-5" cx="163.38" cy="498.3" rx="19.2" ry="23.54"/><ellipse class="cls-5" cx="251.42" cy="498.3" rx="19.2" ry="23.54"/><circle class="cls-6" cx="163.38" cy="488.39" r="2.48"/><circle class="cls-6" cx="250.15" cy="485.92" r="2.48" transform="translate(-136.91 100.08) rotate(-17.85)"/><path class="cls-7" d="M178.27,524.9c-8.42,9.47-22.3,5.68-22.3,5.68"/><path class="cls-7" d="M238.23,526c7.78,10.1,22.3,5.38,22.3,5.38"/><path class="cls-8" d="M178.27,463.36c-16.05-1.78-34.09,6.69-34.09,6.69"/><path class="cls-8" d="M235.89,463.11c14.21-2.88,29.82,3.47,29.82,3.47"/><path class="cls-7" d="M180,595.2c28.79,13.54,55.84,0,55.84,0"/><path class="cls-9" d="M186.92,510.69c-16.1,57.6,52.65,68.75,40.88,0"/><path class="cls-10" d="M123,483.92c-18.55,38.64,2.9,26.77,4.87-10"/><path class="cls-10" d="M276.21,462.36c15.33,31,9.93,49.33,20,47.4,8.27-1.58-12.43-37.08-12.43-37.08"/><path class="cls-11" d="M123.13,466.58c-2.69-5.2,18.46-27.91,24.29-29.91,14-4.78,103.38-12,118.6.44,0,0,22.07,15.77,21.17,24.72C253.19,447.76,163.38,450.45,123.13,466.58Z"/><path class="cls-7" d="M156,580.59c43.68-17.69,102.08,0,102.08,0"/></g><path class="cls-4" d="M57.81,537.41C46.7,612.1,80.47,688,122.9,719.17c21.28-43.51,17.43-135.28,14.93-191.06-5.91-12.67-63.74-7.75-80,9.29"/><path class="cls-12" d="M139.36,626C106.67,657,74,654.27,74,654.27c17,56.15,48.95,64.91,48.95,64.91C143.33,674.33,139.36,626,139.36,626Z"/><path class="cls-12" d="M289.59,622.6c26.86,36.17,54.93,36.19,54.93,36.19-26.41,52.38-54.77,58.42-54.77,58.42C277.35,669.52,289.59,622.6,289.59,622.6Z"/><path class="cls-4" d="M344.52,658.79c33.61-49.22,31.63-131.2,31.63-131.2-17.29,20.49-27.41-2.07-79.37-1-9.57,42.54-7.19,96-7.19,96C311.48,653.15,344.52,658.79,344.52,658.79Z"/><path class="cls-13" d="M327.27,548.49c7.43,7.4,19.76,7,25.63,3.38"/><path class="cls-13" d="M82.8,540.79c8.91,5.53,20.82,2.33,25.74-2.5"/><g id="bar_forearm" data-name="bar + forearm"><rect class="cls-14" y="390.23" width="414" height="21.55"/><g id="left_forearm" data-name="left forearm"><path class="cls-4" d="M57.81,537.41c-2.55-9.29-3.27-11.45-3.35-22.92-.19-28,21.74-65.11,11.81-77.29-11.63-14.28-17.65-20.85-14.47-24.25h7.46c6.88-9.07,0-23.7,0-23.7,3.06-10.32,17.2-4.73,17.2-4.73,7.31-6,15.48-6,19.78-1.51,9-3.22,12.47-3.22,16.34,1.08,13.76,27,4,43.66,4,43.66-3.46,15.93,17,80,21.2,100.37"/><path class="cls-9" d="M76.47,384.51a22,22,0,0,1,3.07,11.17"/><path class="cls-9" d="M95.94,383.42A22,22,0,0,1,99,394.59"/></g><g id="right_forearm" data-name="right forearm"><path class="cls-4" d="M375.6,541.3c3-10.22,3.71-15,3.88-26.82.4-28-21.74-65.11-11.81-77.29,11.63-14.28,19.13-24.25,14.47-24.25h-7.46c-6.88-9.07,0-23.7,0-23.7-3.06-10.32-17.2-4.73-17.2-4.73-7.31-6-15.48-6-19.78-1.51-9-3.22-12.47-3.22-16.34,1.08-13.76,27-4,43.66-4,43.66,3.46,15.93-18.52,78.63-20.71,100.37"/><path class="cls-9" d="M357.48,384.51a22,22,0,0,0-3.07,11.17"/><path class="cls-9" d="M338,383.42a22,22,0,0,0-3.07,11.17"/></g></g><path class="cls-12" d="M147,636.2s54.49,46.57,115.69,2.9C244.76,688.82,183.93,707.38,147,636.2Z"/></g></g></svg>